<svg width="145" height="121" viewBox="0 0 145 121" fill="none" xmlns="http://www.w3.org/2000/svg">
<path fill-rule="evenodd" clip-rule="evenodd" d="M133.728 77.4603C131.294 77.4603 128.951 79.1023 128.951 81.0338C128.951 82.0803 129.839 84.6074 131.339 84.6074C141.687 84.6074 152.835 98.3012 152.835 110.218C152.835 124.805 141.591 136.424 126.563 136.424C110.221 136.424 101.168 122.975 101.168 110.795C101.168 97.021 109.905 88.229 118.489 79.5913C126.777 71.2516 134.922 63.0557 134.922 50.6587C134.922 40.2896 128.026 34.5224 126.299 33.0776C126.142 32.9466 126.028 32.8512 125.966 32.7911C129.254 28.2254 129.076 23.363 128.978 20.6994C128.964 20.3137 128.951 19.974 128.951 19.6881C128.951 5.70483 110.844 -6.23436 99.6935 3.60717C90.7307 0.669915 84.7238 5.64884 81.0189 8.71967C80.6536 9.0225 80.3106 9.30677 79.9894 9.56306C70.2012 8.99666 66.1213 12.9657 63.8679 16.7101C55.2972 15.4701 41.1783 18.2265 41.1783 35.1734C41.1783 41.3574 43.5344 46.7922 44.1638 47.0852C40.1286 51.1102 39.387 60.6307 39.387 63.1661C39.387 68.502 41.0392 74.1732 43.5667 76.2691C49.0934 81.1047 52.2753 82.2661 61.4795 82.8206C56.702 88.9732 49.6368 95.5735 45.3798 99.5504C44.9433 99.9582 44.5357 100.339 44.1638 100.688C42.7707 102.177 41.5267 103.517 40.2827 104.857C39.0386 106.198 37.7946 107.538 36.4015 109.027C35.7549 110.857 36.7204 111.002 37.5957 110.813C44.689 106.849 49.8349 102.359 55.7445 97.2023C56.4496 96.5871 57.1655 95.9624 57.8969 95.328L68.0475 86.9897C68.0475 86.9897 70.1839 84.63 70.4359 83.4162C70.4359 81.0362 67.8819 80.307 66.453 79.8991C66.4157 79.8884 66.3791 79.878 66.3434 79.8677C66.3138 79.8592 66.2847 79.8509 66.2562 79.8426C64.9195 79.5644 61.1361 78.5956 57.4719 77.6572L56.7027 77.4603C56.2208 77.3191 55.7853 77.1969 55.3843 77.0844C52.6971 76.3307 51.5569 76.0109 48.3434 73.2912C42.1886 66.0303 45.2994 55.5325 47.1492 50.6587C47.7892 51.1079 48.343 51.5019 48.8287 51.8474C50.8157 53.261 51.6619 53.863 52.6013 54.1088C53.2981 54.2912 54.0462 54.2775 55.3492 54.2538C55.8913 54.2439 56.5294 54.2323 57.2998 54.2323C62.9952 54.2323 64.9887 52.6333 67.3109 50.7706L67.4504 50.6587C70.4359 51.9798 72.5448 51.0769 73.4214 50.6587C73.4214 50.5178 73.4531 50.5826 73.5566 50.7937C74.0357 51.7713 76.0527 55.8866 83.572 57.2102C78.6561 57.2102 71.6301 67.9285 71.6301 75.0779C71.6301 85.7967 81.0785 90.5633 82.9749 90.5633C84.2771 89.8307 84.7823 88.9331 85.3632 87.5853C85.1767 87.3992 84.7842 87.1607 84.2663 86.846C81.9208 85.4206 77.0039 82.4326 77.0039 75.6735C77.0039 64.8957 83.8753 60.8171 89.5429 57.8058C101.103 57.8058 107.43 53.0661 111.038 49.4676C112.173 48.4259 111.318 46.6385 110.441 47.0852C110.441 47.0852 99.0689 53.0411 88.9458 53.0411L88.8156 53.0412C85.4151 53.0434 75.2126 53.0503 75.2126 40.5337C84.6689 40.5337 91.304 38.1776 97.5201 35.9702C102.998 34.0251 108.15 32.1955 114.621 32.1955C120.907 32.1955 128.354 39.9542 128.354 48.2764C128.354 58.7327 120.394 67.0266 111.979 75.7957C102.54 85.6304 92.5284 96.0627 92.5284 110.813C92.5284 128.297 105.609 144.762 127.16 144.762C144.994 144.762 160 129.48 160 112.004C160 89.9337 142.899 77.4603 133.728 77.4603ZM121.786 29.8131C120.872 28.9013 118.852 28.0597 116.412 28.0263C116.545 27.6959 116.762 27.2628 117.002 26.7857C117.482 25.8292 118.051 24.6956 118.203 23.8572C118.449 21.3545 118.45 14.6768 114.024 19.0925C114.031 19.6495 114.045 20.1617 114.057 20.6372C114.146 23.9472 114.187 25.4819 111.635 28.0263C104.358 28.7164 100.853 30.6897 99.6256 31.3808C99.2757 31.5779 99.1108 31.6707 99.0964 31.5999C95.2959 13.0598 102.186 4.72509 108.286 4.72509C120.966 4.72509 124.771 18.4254 124.771 20.2837C124.771 23.8524 123.72 31.7422 121.786 29.8131ZM94.9168 32.1955C93.6223 33.4867 81.9741 37.5558 74.0185 37.5558C72.4845 37.881 71.5196 38.3467 71.6301 44.7029C71.5731 45.0121 71.6109 45.416 71.6488 45.82C71.693 46.2921 71.7372 46.7643 71.6301 47.0852C68.5306 47.0852 66.6241 42.6367 65.6591 39.9381C65.5943 39.722 65.5188 39.4736 65.4362 39.2016C64.9165 37.4906 64.1126 34.844 63.8679 33.3867C63.5669 28.1717 63.9646 22.7119 69.2417 17.3057C72.644 13.952 74.3009 13.027 78.1981 13.1366C76.7429 20.3314 76.9024 22.4804 76.9882 23.6364L76.9883 23.6385C76.994 23.7154 76.9994 23.7879 77.0039 23.8572C77.0039 30.1687 80.4814 35.1734 82.3778 35.1734C84.2616 35.2014 84.7381 34.8977 85.9603 33.9822C86.3822 33.5612 85.696 32.437 84.7651 30.9118C83.5048 28.8468 81.7958 26.0467 81.7807 23.2616C81.7562 18.7816 83.1242 5.98952 96.708 5.98952C96.4259 6.78047 96.1204 7.54202 95.8149 8.30361C95.2051 9.82389 94.5953 11.3444 94.1704 13.0991C94.0405 13.7283 93.9048 14.3515 93.7699 14.9712C92.5813 20.4293 91.4528 25.6118 94.9168 32.1955ZM57.8969 49.4676C55.4781 49.4676 46.5521 47.5927 46.5521 34.5778C46.5521 29.0847 48.31 19.6881 61.4795 19.6881C61.4795 19.6881 58.494 24.6654 58.494 30.4087C58.494 36.8524 62.1232 45.6248 63.8679 47.6808C63.5675 48.3371 60.5361 49.4676 57.8969 49.4676Z" fill="white" fill-opacity="0.4"/>
<path d="M119.75 87.619C117.4 88.9122 116.124 89.7468 114.286 91.1507L114.772 91.8949C118.892 98.2064 121.731 102.555 125.821 108.22C126.342 108.751 127.498 108.622 128.25 108.22C129.05 107.778 129.733 106.916 129.464 105.866C128.235 102.682 121.56 90.5314 119.75 87.619Z" fill="white" fill-opacity="0.4"/>
<path d="M66.6667 113.081C66.6667 102.686 64.8095 102.352 63.0952 102.333C62.1661 102.333 59.5238 102.819 59.5238 109.498C59.5238 120.279 54.5333 139.352 33.9286 139.352C18.875 139.352 7.7381 127.412 7.7381 113.081C7.7381 95.4634 23.8298 86.2124 33.3333 86.2124C38.7549 86.2124 41.6064 87.6334 43.3749 88.5146C44.1698 88.9107 44.7458 89.1978 45.2381 89.1978C46.4149 89.1978 47.619 89.0832 47.619 86.2124C47.619 83.7149 45.0298 79.0476 33.3333 79.0476C16.3554 79.0476 0.0726191 90.9054 0 113.678C0 158.435 66.6667 159.629 66.6667 113.081Z" fill="white" fill-opacity="0.4"/>
</svg>
