<svg width="68" height="56" viewBox="0 0 68 56" fill="none" xmlns="http://www.w3.org/2000/svg">
<path d="M21.6262 55.0934C46.7729 55.0934 60.5329 34.2401 60.5329 16.1867C60.5329 15.6001 60.5329 15.0134 60.5062 14.4267C63.1729 12.5067 65.4929 10.0801 67.3329 7.33341C64.8795 8.42674 62.2395 9.14674 59.4662 9.49341C62.2929 7.81341 64.4529 5.12007 65.4929 1.92007C62.8529 3.4934 59.9195 4.6134 56.7995 5.22674C54.2929 2.56007 50.7462 0.906738 46.8262 0.906738C39.2795 0.906738 33.1462 7.04007 33.1462 14.5867C33.1462 15.6534 33.2795 16.6934 33.4929 17.7067C22.1329 17.1467 12.0529 11.6801 5.30621 3.41341C4.13287 5.44007 3.4662 7.78674 3.4662 10.2934C3.4662 15.0401 5.89287 19.2267 9.54621 21.6801C7.30621 21.6001 5.19954 20.9867 3.35954 19.9734C3.35954 20.0267 3.35954 20.0801 3.35954 20.1601C3.35954 26.7734 8.07954 32.3201 14.3195 33.5734C13.1729 33.8934 11.9729 34.0534 10.7195 34.0534C9.83954 34.0534 8.98621 33.9734 8.15954 33.8134C9.89287 39.2534 14.9595 43.2001 20.9329 43.3067C16.2395 46.9867 10.3462 49.1734 3.94621 49.1734C2.85287 49.1734 1.75954 49.1201 0.692871 48.9867C6.71954 52.8267 13.9195 55.0934 21.6262 55.0934Z" fill="#DADCE0"/>
</svg>
