<svg width="124" height="153" viewBox="0 0 124 153" fill="none" xmlns="http://www.w3.org/2000/svg">
<g clip-path="url(#clip0_4111_74)">
<path d="M80 0C35.8203 0 0 35.8203 0 80C0 115.352 22.92 145.332 54.7119 155.908C58.7109 156.641 60.1709 154.17 60.1709 152.06C60.1709 150.156 60.0977 143.848 60.0586 137.168C37.8125 142.002 33.1103 127.734 33.1103 127.734C29.4678 118.496 24.2284 116.035 24.2284 116.035C16.958 111.074 24.78 111.172 24.78 111.172C32.8122 111.728 37.0409 119.414 37.0409 119.414C44.1797 131.641 55.7714 128.105 60.3222 126.055C61.0494 120.898 63.1197 117.363 65.4003 115.371C47.6416 113.35 28.96 106.484 28.96 75.83C28.96 67.0897 32.0802 59.9609 37.1875 54.3603C36.372 52.3291 33.6181 44.1894 37.9784 33.1787C37.9784 33.1787 44.6875 31.0303 59.9803 41.3819C66.3572 39.5997 73.1981 38.7208 79.9998 38.6914C86.7967 38.7208 93.6423 39.6094 100.029 41.3916C115.293 31.0303 122.012 33.1884 122.012 33.1884C126.387 44.2089 123.633 52.3387 122.813 54.3603C127.939 59.9609 131.035 67.0898 131.035 75.83C131.035 106.562 112.324 113.33 94.502 115.312C97.383 117.793 99.9317 122.656 99.9317 130.117C99.9317 140.811 99.8242 149.434 99.8242 152.07C99.8242 154.199 101.279 156.689 105.332 155.908C137.1 145.312 160 115.332 160 80C160 35.8203 124.18 0 80 0Z" fill="white"/>
</g>
<defs>
<clipPath id="clip0_4111_74">
<rect width="124" height="153" fill="white"/>
</clipPath>
</defs>
</svg>
