<svg width="114" height="120" viewBox="0 0 114 120" fill="none" xmlns="http://www.w3.org/2000/svg">
<path d="M72.1263 79.0751L56.8862 64.015L57.0662 63.835C67.5062 52.1949 74.9462 38.815 79.3263 24.6549H96.9064V12.625H54.9062V0.624878H42.9062V12.625H0.90625V24.5649H67.9262C63.8762 36.1448 57.5461 47.1248 48.9061 56.725C43.3261 50.515 38.706 43.765 35.0461 36.6249H23.0462C27.4262 46.4048 33.4263 55.645 40.9262 63.9849L10.4162 94.1349L18.9062 102.625L48.9063 72.6249L67.5664 91.285L72.1263 79.0751Z" fill="white" fill-opacity="0.25"/>
<path fill-rule="evenodd" clip-rule="evenodd" d="M93.9061 48.625H105.906L132.906 120.625H120.906L114.156 102.625H85.6562L78.9062 120.625H66.9061L93.9061 48.625ZM99.9062 64.6149L90.1562 90.6249H109.656L99.9062 64.6149Z" fill="white" fill-opacity="0.25"/>
</svg>
