<svg width="24" height="24" viewBox="0 0 24 24" fill="none" xmlns="http://www.w3.org/2000/svg">
<path fill-rule="evenodd" clip-rule="evenodd" d="M21 10C21 5.02944 16.9706 1 12 1C7.02944 1 3 5.02944 3 10V21C3 22.1046 3.89543 23 5 23C6.10457 23 7 22.1046 7 21C7 20.1716 7.67157 19.5 8.5 19.5C9.32843 19.5 10 20.1716 10 21C10 22.1046 10.8954 23 12 23C13.1046 23 14 22.1046 14 21C14 20.1716 14.6716 19.5 15.5 19.5C16.3284 19.5 17 20.1716 17 21C17 22.1046 17.8954 23 19 23C20.1046 23 21 22.1046 21 21V10ZM10 9.5C10 10.3284 9.32843 11 8.5 11C7.67157 11 7 10.3284 7 9.5C7 8.67157 7.67157 8 8.5 8C9.32843 8 10 8.67157 10 9.5ZM15.5 11C16.3284 11 17 10.3284 17 9.5C17 8.67157 16.3284 8 15.5 8C14.6716 8 14 8.67157 14 9.5C14 10.3284 14.6716 11 15.5 11Z" fill="#1A1A1A"/>
</svg>
