<svg width="96" height="97" viewBox="0 0 96 97" fill="none" xmlns="http://www.w3.org/2000/svg">
<path fill-rule="evenodd" clip-rule="evenodd" d="M61.2868 32.4088L67.6412 37.9541L66.3222 39.7394L71.9796 45.3818L66.8679 51.7546L68.3827 63.841L62.1859 69.9494L64.9831 85.4477C73.0991 81.6671 79.7387 75.2607 83.8034 67.3243L76.2366 63.4066C77.8235 60.3641 78.9305 57.0328 79.4576 53.5125L87.7835 54.7632C88.0439 52.9198 88.1786 51.0362 88.1786 49.1212C88.1786 38.0795 83.7008 28.0809 76.4575 20.8331L70.6618 26.5263C68.219 24.0529 65.3722 21.9776 62.2281 20.4067L65.8384 13.2054C60.4637 10.5451 54.407 9.04939 48 9.04939C41.593 9.04939 35.5363 10.5451 30.1616 13.2054L33.7719 20.4067C30.6278 21.9776 27.781 24.0529 25.3382 26.5263L19.5425 20.8331C12.2992 28.0809 7.82137 38.0795 7.82137 49.1212C7.82137 51.0362 7.95606 52.9198 8.21651 54.7632L16.5424 53.5125C17.0695 57.0328 18.1765 60.3641 19.7634 63.4066L12.1966 67.3243C16.2898 75.3164 22.9942 81.7569 31.188 85.5269L33.1332 68.3895L22.4715 47.8244L31.2086 27.7819L36.1502 30.2462L44.0939 20.8831L51.2521 24.0561L52.4307 22.6847L62.5787 30.5566L61.2868 32.4088Z" fill="#FFD633"/>
<path fill-rule="evenodd" clip-rule="evenodd" d="M24.2132 20.2068C23.4341 19.1373 23.6718 17.6405 24.7441 16.8634C25.8165 16.0864 27.3174 16.3235 28.0965 17.393C28.8756 18.4625 28.6378 19.9593 27.5655 20.7364C26.4932 21.5134 24.9923 21.2763 24.2132 20.2068ZM48.8108 41.9124L46.4187 45.3419H38.2182V50.1291H46.911L60.4986 59.6949L62.6842 56.9702L63.3264 62.0942L57.0141 68.3166L60.4292 87.2388C58.5565 87.8457 56.6236 88.3192 54.6416 88.648L53.215 80.0864C51.5182 80.3655 49.7761 80.5107 48 80.5107C46.2239 80.5107 44.4818 80.3655 42.785 80.0864L41.3584 88.648C39.4626 88.3335 37.6116 87.8866 35.8154 87.3172L38.0668 67.4828L27.783 47.6466L33.5914 34.3225L48.8108 41.9124ZM53.5566 48.9479L51.0041 47.1509L58.5287 36.363L61.1588 38.6581L53.5566 48.9479ZM45.4334 26.7156L47.9918 27.8496L42.9974 33.6609L40.5685 32.4496L45.4334 26.7156ZM51.5806 37.9413L47.4227 35.8678L53.0966 29.266L56.0395 31.5488L51.5806 37.9413ZM59.5741 53.1842L57.4789 51.7092L63.4423 43.6374L65.5476 45.7371L59.5741 53.1842ZM50.4 85.8536C50.4 87.1756 49.3255 88.2472 48 88.2472C46.6745 88.2472 45.6 87.1756 45.6 85.8536C45.6 84.5317 46.6745 83.46 48 83.46C49.3255 83.46 50.4 84.5317 50.4 85.8536ZM10.3712 60.981C10.7808 62.2383 12.1348 62.9264 13.3954 62.5178C14.656 62.1093 15.3459 60.759 14.9363 59.5017C14.5267 58.2445 13.1727 57.5564 11.9121 57.9649C10.6515 58.3734 9.96163 59.7238 10.3712 60.981ZM85.6288 60.981C86.0384 59.7238 85.3485 58.3734 84.0879 57.9649C82.8273 57.5564 81.4733 58.2445 81.0637 59.5017C80.6541 60.759 81.344 62.1093 82.6046 62.5178C83.8652 62.9264 85.2192 62.2383 85.6288 60.981ZM67.9035 17.393C68.6826 16.3235 70.1835 16.0864 71.2559 16.8634C72.3282 17.6405 72.5659 19.1373 71.7868 20.2068C71.0077 21.2763 69.5068 21.5134 68.4345 20.7364C67.3622 19.9593 67.1244 18.4625 67.9035 17.393Z" fill="white"/>
<path fill-rule="evenodd" clip-rule="evenodd" d="M46.4187 45.3419L48.8108 41.9124L33.5914 34.3225L27.783 47.6466L38.0668 67.4828L35.8154 87.3172C37.6116 87.8866 39.4626 88.3335 41.3584 88.648L42.785 80.0864C44.4818 80.3655 46.2239 80.5107 48 80.5107C49.7761 80.5107 51.5182 80.3655 53.215 80.0864L54.6416 88.648C56.6236 88.3192 58.5565 87.8457 60.4292 87.2388L57.0141 68.3166L63.3264 62.0942L62.6842 56.9702L60.4986 59.6949L46.911 50.1291H38.2182V45.3419H46.4187ZM51.0041 47.1509L53.5566 48.9479L61.1588 38.6581L58.5287 36.363L51.0041 47.1509ZM61.2868 32.4088L67.6412 37.9541L66.3222 39.7394L71.9796 45.3818L66.8679 51.7546L68.3827 63.841L62.1859 69.9494L64.9831 85.4477C73.0991 81.6671 79.7387 75.2607 83.8034 67.3243L76.2366 63.4066C77.8235 60.3641 78.9305 57.0328 79.4576 53.5125L87.7835 54.7632C88.0439 52.9198 88.1786 51.0362 88.1786 49.1212C88.1786 38.0795 83.7008 28.0809 76.4575 20.8331L70.6618 26.5263C68.219 24.0529 65.3722 21.9776 62.2281 20.4067L65.8384 13.2054C60.4637 10.5451 54.407 9.04939 48 9.04939C41.593 9.04939 35.5363 10.5451 30.1616 13.2054L33.7719 20.4067C30.6278 21.9776 27.781 24.0529 25.3382 26.5263L19.5425 20.8331C12.2992 28.0809 7.82137 38.0795 7.82137 49.1212C7.82137 51.0362 7.95606 52.9198 8.21651 54.7632L16.5424 53.5125C17.0695 57.0328 18.1765 60.3641 19.7634 63.4066L12.1966 67.3243C16.2898 75.3164 22.9942 81.7569 31.188 85.5269L33.1332 68.3895L22.4715 47.8244L31.2086 27.7819L36.1502 30.2462L44.0939 20.8831L51.2521 24.0561L52.4307 22.6847L62.5787 30.5566L61.2868 32.4088ZM47.9918 27.8496L45.4334 26.7156L40.5685 32.4496L42.9974 33.6609L47.9918 27.8496ZM47.4227 35.8678L51.5806 37.9413L56.0395 31.5488L53.0966 29.266L47.4227 35.8678ZM57.4789 51.7092L59.5741 53.1842L65.5476 45.7371L63.4423 43.6374L57.4789 51.7092ZM5.03442 34.7497C5.34017 33.8183 5.67553 32.9002 6.03939 31.9966C5.6431 31.2278 4.84398 30.4804 3.78815 29.9338C4.19652 28.9825 4.63485 28.047 5.10197 27.1286C6.20156 27.584 7.29033 27.7135 8.1356 27.521C8.59782 26.6609 9.0872 25.8176 9.6026 24.992C9.3483 24.1658 8.6924 23.29 7.74786 22.5675C8.31539 21.7026 8.91019 20.8572 9.53104 20.0323C10.5363 20.6708 11.5872 20.9855 12.4531 20.9396C13.0549 20.1765 13.6809 19.4334 14.3299 18.7112C14.2254 17.8529 13.7328 16.8753 12.9282 15.9987C13.6364 15.2454 14.3688 14.515 15.124 13.8087C16.0029 14.6111 16.9832 15.1025 17.8437 15.2067C18.5678 14.5594 19.313 13.9351 20.0781 13.3349C20.1241 12.4713 19.8086 11.4231 19.1684 10.4206C19.9954 9.80139 20.8432 9.20817 21.7104 8.64214C22.4347 9.58417 23.3129 10.2383 24.1414 10.492C24.9691 9.97793 25.8147 9.48984 26.677 9.02885C26.8701 8.18583 26.7403 7.09996 26.2836 6.00329C27.2045 5.53742 28.1425 5.10025 29.0963 4.69297C29.6443 5.746 30.3938 6.54298 31.1645 6.93822C32.0706 6.57533 32.9911 6.24087 33.9251 5.93592C34.2607 5.13897 34.3211 4.04795 34.0622 2.88997C35.0488 2.59233 36.0489 2.32547 37.0613 2.09051C37.4182 3.2234 38.0185 4.13851 38.7097 4.66062C39.6609 4.46243 40.623 4.29407 41.5951 4.15654C42.0664 3.43129 42.3176 2.36733 42.2655 1.18137C43.2872 1.06024 44.3188 0.971072 45.3591 0.914894C45.5151 2.09356 45.9494 3.09877 46.5417 3.73047C47.0259 3.71516 47.512 3.70745 48 3.70745C48.488 3.70745 48.9741 3.71516 49.4583 3.73047C50.0506 3.09877 50.4849 2.09356 50.6409 0.914894C51.6812 0.971072 52.7128 1.06024 53.7345 1.18137C53.6824 2.36733 53.9336 3.43129 54.4049 4.15654C55.377 4.29407 56.3391 4.46243 57.2903 4.66062C57.9815 4.13851 58.5818 3.2234 58.9387 2.09051C59.9511 2.32547 60.9512 2.59233 61.9378 2.88997C61.6789 4.04795 61.7393 5.13897 62.0749 5.93592C63.0089 6.24087 63.9294 6.57533 64.8355 6.93822C65.6062 6.54298 66.3557 5.746 66.9037 4.69297C67.8575 5.10025 68.7955 5.53742 69.7164 6.00329C69.2597 7.09996 69.1299 8.18583 69.323 9.02885C70.1853 9.48984 71.0309 9.97793 71.8587 10.492C72.6871 10.2383 73.5653 9.58417 74.2896 8.64214C75.1568 9.20817 76.0046 9.80139 76.8316 10.4206C76.1914 11.4231 75.8759 12.4713 75.9219 13.3349C76.687 13.9351 77.4322 14.5594 78.1563 15.2067C79.0168 15.1025 79.9971 14.6111 80.876 13.8087C81.6312 14.515 82.3636 15.2454 83.0718 15.9987C82.2672 16.8753 81.7746 17.8529 81.6701 18.7112C82.3191 19.4334 82.9451 20.1765 83.5469 20.9396C84.4128 20.9855 85.4637 20.6708 86.469 20.0323C87.0898 20.8572 87.6846 21.7026 88.2521 22.5675C87.3076 23.29 86.6517 24.1658 86.3974 24.992C86.9128 25.8176 87.4022 26.6609 87.8644 27.521C88.7097 27.7135 89.7984 27.584 90.898 27.1286C91.3652 28.047 91.8035 28.9825 92.2119 29.9338C91.156 30.4804 90.3569 31.2278 89.9606 31.9966C90.3245 32.9002 90.6598 33.8183 90.9656 34.7497C91.7647 35.0845 92.8586 35.1447 94.0197 34.8865C94.3181 35.8705 94.5857 36.8679 94.8212 37.8776C93.6853 38.2336 92.7678 38.8323 92.2443 39.5217C92.443 40.4703 92.6118 41.4299 92.7497 42.3994C93.4769 42.8694 94.5437 43.1199 95.7328 43.068C95.8543 44.087 95.9437 45.1158 96 46.1534C94.8182 46.309 93.8103 46.7421 93.1769 47.3328C93.1923 47.8157 93.2 48.3006 93.2 48.7872C93.2 49.2739 93.1923 49.7588 93.1769 50.2417C93.8103 50.8324 94.8182 51.2655 96 51.4211C95.9437 52.4587 95.8543 53.4875 95.7328 54.5065C94.5437 54.4545 93.4769 54.7051 92.7497 55.1751C92.6118 56.1446 92.443 57.1042 92.2443 58.0528C92.7678 58.7422 93.6853 59.3409 94.8212 59.6969C94.5857 60.7065 94.3181 61.704 94.0197 62.688C92.8586 62.4297 91.7647 62.49 90.9656 62.8247C90.6598 63.7562 90.3245 64.6743 89.9606 65.5779C90.3569 66.3466 91.156 67.0941 92.2119 67.6406C91.8035 68.592 91.3652 69.5274 90.898 70.4459C89.7984 69.9904 88.7097 69.8609 87.8644 70.0535C87.4022 70.9136 86.9128 71.7569 86.3974 72.5824C86.6517 73.4087 87.3076 74.2845 88.2521 75.007C87.6846 75.8718 87.0898 76.7173 86.469 77.5422C85.4637 76.9036 84.4128 76.589 83.5469 76.6349C82.9451 77.3979 82.3191 78.1411 81.6701 78.8633C81.7746 79.7216 82.2672 80.6992 83.0718 81.5758C82.3636 82.329 81.6312 83.0594 80.876 83.7658C79.9971 82.9633 79.0168 82.472 78.1563 82.3678C77.4322 83.0151 76.687 83.6394 75.9219 84.2396C75.8759 85.1032 76.1914 86.1513 76.8316 87.1539C76.0046 87.7731 75.1568 88.3663 74.2896 88.9323C73.5653 87.9903 72.6871 87.3361 71.8587 87.0825C71.0309 87.5965 70.1853 88.0846 69.323 88.5456C69.1299 89.3886 69.2597 90.4745 69.7164 91.5712C68.7955 92.0371 67.8575 92.4742 66.9037 92.8815C66.3557 91.8285 65.6062 91.0315 64.8355 90.6362C63.9294 90.9991 63.0089 91.3336 62.0749 91.6385C61.7393 92.4355 61.6789 93.5265 61.9378 94.6845C60.9512 94.9821 59.9511 95.249 58.9387 95.484C58.5818 94.3511 57.9815 93.436 57.2903 92.9139C56.3391 93.112 55.377 93.2804 54.4049 93.4179C53.9336 94.1432 53.6824 95.2071 53.7345 96.3931C52.7128 96.5142 51.6812 96.6034 50.6409 96.6596C50.4849 95.4809 50.0506 94.4757 49.4583 93.844C48.9741 93.8593 48.488 93.867 48 93.867C47.512 93.867 47.0259 93.8593 46.5417 93.844C45.9494 94.4757 45.5151 95.4809 45.3591 96.6596C44.3188 96.6034 43.2872 96.5142 42.2655 96.3931C42.3176 95.2071 42.0664 94.1432 41.5951 93.4179C40.623 93.2804 39.6609 93.112 38.7097 92.9139C38.0185 93.436 37.4182 94.3511 37.0613 95.484C36.0489 95.249 35.0488 94.9821 34.0622 94.6845C34.3211 93.5265 34.2607 92.4355 33.9251 91.6385C32.9911 91.3336 32.0706 90.9991 31.1645 90.6362C30.3938 91.0315 29.6443 91.8285 29.0963 92.8815C28.1425 92.4742 27.2045 92.0371 26.2836 91.5712C26.7403 90.4745 26.8701 89.3886 26.677 88.5456C25.8147 88.0846 24.9691 87.5965 24.1414 87.0825C23.3129 87.3361 22.4347 87.9903 21.7104 88.9323C20.8432 88.3663 19.9954 87.7731 19.1684 87.1539C19.8086 86.1513 20.1241 85.1032 20.0781 84.2396C19.313 83.6394 18.5678 83.0151 17.8437 82.3678C16.9832 82.472 16.0029 82.9633 15.124 83.7658C14.3688 83.0594 13.6364 82.329 12.9282 81.5758C13.7328 80.6992 14.2254 79.7216 14.3299 78.8633C13.6809 78.1411 13.0549 77.3979 12.4531 76.6349C11.5872 76.589 10.5363 76.9036 9.53104 77.5422C8.91019 76.7173 8.31539 75.8718 7.74786 75.007C8.6924 74.2845 9.3483 73.4087 9.6026 72.5824C9.0872 71.7569 8.59782 70.9136 8.1356 70.0535C7.29033 69.8609 6.20156 69.9904 5.10197 70.4459C4.63485 69.5274 4.19652 68.592 3.78815 67.6406C4.84398 67.0941 5.6431 66.3466 6.03939 65.5779C5.67553 64.6743 5.34017 63.7562 5.03442 62.8247C4.23534 62.49 3.14141 62.4297 1.98034 62.688C1.68191 61.704 1.41434 60.7065 1.17876 59.6969C2.31466 59.3409 3.23221 58.7422 3.75571 58.0528C3.557 57.1042 3.38818 56.1446 3.2503 55.1751C2.52311 54.7051 1.45631 54.4545 0.267186 54.5065C0.145734 53.4875 0.0563273 52.4587 0 51.4211C1.18181 51.2655 2.1897 50.8324 2.82308 50.2417C2.80773 49.7588 2.8 49.2739 2.8 48.7872C2.8 48.3006 2.80773 47.8157 2.82308 47.3328C2.1897 46.7421 1.18181 46.309 0 46.1534C0.0563273 45.1158 0.145734 44.087 0.267186 43.068C1.45631 43.1199 2.52311 42.8694 3.2503 42.3994C3.38818 41.4299 3.557 40.4703 3.75571 39.5217C3.23221 38.8323 2.31466 38.2336 1.17876 37.8776C1.41434 36.8679 1.68191 35.8705 1.98034 34.8865C3.14141 35.1447 4.23534 35.0845 5.03442 34.7497ZM48 88.2472C49.3255 88.2472 50.4 87.1756 50.4 85.8536C50.4 84.5317 49.3255 83.46 48 83.46C46.6745 83.46 45.6 84.5317 45.6 85.8536C45.6 87.1756 46.6745 88.2472 48 88.2472ZM10.3712 60.981C10.7808 62.2383 12.1348 62.9263 13.3954 62.5178C14.656 62.1093 15.3459 60.759 14.9363 59.5017C14.5267 58.2445 13.1727 57.5564 11.9121 57.9649C10.6515 58.3734 9.96163 59.7238 10.3712 60.981ZM24.7441 16.8634C23.6718 17.6404 23.4341 19.1373 24.2132 20.2068C24.9923 21.2763 26.4932 21.5134 27.5655 20.7364C28.6378 19.9593 28.8756 18.4625 28.0965 17.393C27.3174 16.3235 25.8165 16.0864 24.7441 16.8634ZM85.6288 60.981C86.0384 59.7238 85.3485 58.3734 84.0879 57.9649C82.8273 57.5564 81.4733 58.2445 81.0637 59.5017C80.6541 60.759 81.344 62.1093 82.6046 62.5178C83.8652 62.9263 85.2192 62.2383 85.6288 60.981ZM71.2559 16.8634C70.1835 16.0864 68.6826 16.3235 67.9035 17.393C67.1244 18.4625 67.3622 19.9593 68.4345 20.7364C69.5068 21.5134 71.0077 21.2763 71.7868 20.2068C72.5659 19.1373 72.3282 17.6404 71.2559 16.8634Z" fill="black"/>
</svg>
