<svg width="1024" height="1024" viewBox="0 0 1024 1024" fill="none" xmlns="http://www.w3.org/2000/svg">
<mask id="mask0_3_17" style="mask-type:alpha" maskUnits="userSpaceOnUse" x="0" y="0" width="1024" height="1024">
<path d="M512 1024C794.77 1024 1024 794.77 1024 512C1024 229.23 794.77 0 512 0C229.23 0 0 229.23 0 512C0 794.77 229.23 1024 512 1024Z" fill="white"/>
</mask>
<g mask="url(#mask0_3_17)">
<path d="M512 1024C794.77 1024 1024 794.77 1024 512C1024 229.23 794.77 0 512 0C229.23 0 0 229.23 0 512C0 794.77 229.23 1024 512 1024Z" fill="#E6E6E6"/>
<path d="M1024 0H0V165.161H1024V0Z" fill="#E52103"/>
<path d="M1024 165.161H0V330.323H1024V165.161Z" fill="#FF8D01"/>
<path d="M1024 330.323H0V495.484H1024V330.323Z" fill="#FFEE00"/>
<path d="M1024 495.484H0V660.645H1024V495.484Z" fill="#018126"/>
<path d="M1024 660.645H0V825.806H1024V660.645Z" fill="#004DFF"/>
<path d="M1024 825.806H0V990.968H1024V825.806Z" fill="#751C88"/>
<path d="M1024 -0.76416H0V142.376H1024V-0.76416Z" fill="#23A645"/>
<path d="M1024 142.376H0V285.515H1024V142.376Z" fill="#FBD43D"/>
<path d="M1024 285.515H0V428.655H1024V285.515Z" fill="#F56B0C"/>
<path d="M1024 428.655H0V571.795H1024V428.655Z" fill="#D63B4B"/>
<path d="M1024 571.795H0V714.935H1024V571.795Z" fill="#E94AA9"/>
<path d="M1024 714.935H0V858.075H1024V714.935Z" fill="#6C43C1"/>
<path d="M1024 858.075H0V1001.21H1024V858.075Z" fill="#0066D6"/>
</g>
</svg>
