<svg width="977" height="975" viewBox="0 0 977 975" fill="none" xmlns="http://www.w3.org/2000/svg">
<path fill-rule="evenodd" clip-rule="evenodd" d="M472.407 452.415L496.751 417.491L341.862 340.201L282.75 475.885L387.409 677.883L364.496 879.863C382.777 885.662 401.614 890.213 420.908 893.416L435.426 806.23C452.695 809.072 470.424 810.551 488.5 810.551C506.576 810.551 524.305 809.072 541.574 806.23L556.092 893.416C576.263 890.067 595.935 885.245 614.993 879.065L580.237 686.374L644.478 623.01L637.942 570.83L615.7 598.576L477.417 501.165H388.95V452.415H472.407ZM519.073 470.837L545.05 489.136L622.418 384.352L595.652 360.98L519.073 470.837ZM623.721 320.713L688.391 377.182L674.966 395.363L732.543 452.822L680.52 517.717L695.936 640.797L632.871 703.001L661.338 860.826C743.935 822.327 811.508 757.088 852.875 676.269L775.866 636.374C792.016 605.391 803.282 571.467 808.647 535.619L893.38 548.355C896.031 529.583 897.401 510.402 897.401 490.901C897.401 378.459 851.83 276.64 778.115 202.833L719.131 260.809C694.271 235.622 665.299 214.489 633.301 198.491L670.042 125.158C615.345 98.0672 553.705 82.8363 488.5 82.8363C423.295 82.8363 361.655 98.0672 306.958 125.158L343.699 198.491C311.701 214.489 282.729 235.622 257.869 260.809L198.885 202.833C125.17 276.64 79.5987 378.459 79.5987 490.901C79.5987 510.402 80.9695 529.583 83.6201 548.355L168.353 535.619C173.718 571.467 184.984 605.391 201.134 636.374L124.125 676.269C165.782 757.655 234.014 823.241 317.402 861.632L337.199 687.117L228.694 477.695L317.613 273.595L367.903 298.69L448.747 203.343L521.597 235.654L533.592 221.689L636.869 301.851L623.721 320.713ZM488.417 274.285L462.379 262.737L412.869 321.129L437.588 333.464L488.417 274.285ZM482.625 355.937L524.94 377.053L570.318 311.955L540.368 288.708L482.625 355.937ZM584.967 517.255L606.29 532.276L667.084 456.44L645.658 435.058L584.967 517.255ZM51.2357 344.551C54.3474 335.066 57.7604 325.717 61.4634 316.515C57.4303 308.687 49.2976 301.075 38.5523 295.509C42.7083 285.822 47.1693 276.296 51.9231 266.943C63.1138 271.581 74.1943 272.899 82.7966 270.938C87.5007 262.18 92.4812 253.592 97.7265 245.186C95.1384 236.772 88.4633 227.853 78.8506 220.496C84.6264 211.688 90.6797 203.079 96.9982 194.679C107.228 201.181 117.924 204.385 126.736 203.918C132.861 196.148 139.232 188.58 145.836 181.225C144.773 172.485 139.759 162.53 131.571 153.603C138.779 145.933 146.232 138.495 153.918 131.302C162.863 139.473 172.839 144.477 181.597 145.538C188.966 138.947 196.55 132.589 204.336 126.477C204.805 117.683 201.594 107.009 195.078 96.7996C203.495 90.4941 212.123 84.4532 220.948 78.6892C228.32 88.2822 237.257 94.9436 245.689 97.5264C254.112 92.2919 262.718 87.3216 271.494 82.6272C273.459 74.0424 272.138 62.9846 267.49 51.8168C276.862 47.0727 286.408 42.6209 296.116 38.4734C301.693 49.1967 309.32 57.3127 317.164 61.3375C326.385 57.6422 335.753 54.2361 345.258 51.1308C348.674 43.0152 349.289 31.905 346.653 20.1129C356.695 17.0819 366.873 14.3644 377.176 11.9717C380.808 23.5083 386.918 32.8272 393.952 38.1439C403.632 36.1258 413.424 34.4112 423.317 33.0108C428.113 25.6253 430.67 14.7906 430.139 2.71361C440.538 1.48011 451.036 0.572075 461.624 0C463.211 12.0027 467.631 22.2391 473.658 28.6719C478.586 28.516 483.534 28.4375 488.5 28.4375C493.466 28.4375 498.414 28.516 503.342 28.6719C509.369 22.2391 513.789 12.0027 515.376 0C525.964 0.572075 536.462 1.48011 546.861 2.71361C546.33 14.7906 548.887 25.6253 553.683 33.0108C563.576 34.4112 573.368 36.1258 583.048 38.1439C590.082 32.8272 596.192 23.5083 599.824 11.9717C610.127 14.3644 620.305 17.0819 630.347 20.1129C627.711 31.905 628.326 43.0152 631.742 51.1308C641.247 54.2361 650.615 57.6422 659.836 61.3375C667.68 57.3127 675.307 49.1967 680.884 38.4734C690.592 42.6209 700.138 47.0727 709.51 51.8168C704.862 62.9846 703.541 74.0424 705.506 82.6272C714.282 87.3216 722.888 92.2919 731.311 97.5264C739.743 94.9436 748.68 88.2822 756.052 78.6892C764.877 84.4532 773.505 90.4941 781.922 96.7996C775.406 107.009 772.195 117.683 772.664 126.477C780.45 132.589 788.034 138.947 795.403 145.538C804.161 144.477 814.137 139.473 823.082 131.302C830.768 138.495 838.221 145.933 845.429 153.603C837.241 162.53 832.227 172.485 831.164 181.225C837.768 188.58 844.139 196.148 850.264 203.918C859.076 204.385 869.772 201.181 880.002 194.679C886.32 203.079 892.374 211.688 898.149 220.496C888.537 227.853 881.862 236.772 879.274 245.186C884.519 253.592 889.499 262.18 894.203 270.938C902.806 272.899 913.886 271.581 925.077 266.943C929.831 276.296 934.292 285.822 938.448 295.509C927.702 301.075 919.57 308.687 915.537 316.515C919.24 325.717 922.653 335.066 925.764 344.551C933.897 347.96 945.03 348.574 956.846 345.944C959.883 355.965 962.606 366.122 965.004 376.404C953.443 380.028 944.105 386.126 938.778 393.146C940.8 402.806 942.518 412.578 943.921 422.45C951.322 427.237 962.179 429.788 974.281 429.259C975.517 439.636 976.427 450.113 977 460.679C964.973 462.263 954.715 466.674 948.269 472.689C948.425 477.607 948.504 482.544 948.504 487.5C948.504 492.456 948.425 497.393 948.269 502.311C954.715 508.326 964.973 512.737 977 514.321C976.427 524.887 975.517 535.364 974.281 545.741C962.179 545.212 951.322 547.763 943.921 552.55C942.518 562.422 940.8 572.194 938.778 581.854C944.105 588.874 953.443 594.972 965.004 598.596C962.606 608.878 959.883 619.035 956.846 629.056C945.03 626.426 933.897 627.04 925.764 630.449C922.653 639.934 919.24 649.283 915.537 658.485C919.57 666.313 927.702 673.925 938.448 679.491C934.292 689.178 929.831 698.704 925.077 708.057C913.886 703.419 902.806 702.101 894.203 704.062C889.499 712.82 884.519 721.408 879.274 729.814C881.862 738.228 888.537 747.147 898.149 754.504C892.374 763.312 886.32 771.921 880.002 780.321C869.772 773.819 859.076 770.615 850.264 771.082C844.139 778.852 837.768 786.42 831.164 793.775C832.227 802.515 837.241 812.47 845.429 821.397C838.221 829.067 830.768 836.505 823.082 843.698C814.137 835.527 804.161 830.523 795.403 829.462C788.034 836.053 780.45 842.411 772.664 848.523C772.195 857.317 775.406 867.991 781.922 878.2C773.505 884.506 764.877 890.547 756.052 896.311C748.68 886.718 739.743 880.056 731.311 877.474C722.888 882.708 714.282 887.678 705.506 892.373C703.541 900.958 704.862 912.015 709.51 923.183C700.138 927.927 690.592 932.379 680.884 936.527C675.307 925.803 667.68 917.687 659.836 913.662C650.615 917.358 641.247 920.764 631.742 923.869C628.326 931.985 627.711 943.095 630.347 954.887C620.305 957.918 610.127 960.636 599.824 963.028C596.192 951.492 590.082 942.173 583.048 936.856C573.368 938.874 563.576 940.589 553.683 941.989C548.887 949.375 546.33 960.209 546.861 972.286C536.462 973.52 525.964 974.428 515.376 975C513.789 962.997 509.369 952.761 503.342 946.328C498.414 946.484 493.466 946.562 488.5 946.562C483.534 946.562 478.586 946.484 473.658 946.328C467.631 952.761 463.211 962.997 461.624 975C451.036 974.428 440.538 973.52 430.139 972.286C430.67 960.209 428.113 949.375 423.317 941.989C413.424 940.589 403.632 938.874 393.952 936.856C386.918 942.173 380.808 951.492 377.176 963.028C366.873 960.636 356.695 957.918 346.653 954.887C349.289 943.095 348.674 931.985 345.258 923.869C335.753 920.764 326.385 917.358 317.164 913.662C309.32 917.687 301.693 925.803 296.116 936.527C286.408 932.379 276.862 927.927 267.49 923.183C272.138 912.015 273.459 900.958 271.494 892.373C262.718 887.678 254.112 882.708 245.689 877.474C237.257 880.056 228.32 886.718 220.948 896.311C212.123 890.547 203.495 884.506 195.078 878.2C201.594 867.991 204.805 857.317 204.336 848.523C196.55 842.411 188.966 836.053 181.597 829.462C172.839 830.523 162.863 835.527 153.918 843.698C146.232 836.505 138.779 829.067 131.571 821.397C139.759 812.47 144.773 802.515 145.836 793.775C139.232 786.42 132.861 778.852 126.736 771.082C117.924 770.615 107.228 773.819 96.9982 780.321C90.6797 771.921 84.6264 763.312 78.8506 754.504C88.4633 747.147 95.1384 738.228 97.7265 729.814C92.4812 721.408 87.5007 712.82 82.7966 704.062C74.1943 702.101 63.1138 703.419 51.9231 708.057C47.1693 698.704 42.7083 689.178 38.5523 679.491C49.2976 673.925 57.4303 666.313 61.4634 658.485C57.7604 649.283 54.3474 639.934 51.2357 630.449C43.1035 627.04 31.9704 626.426 20.1541 629.056C17.1169 619.035 14.3938 608.878 11.9963 598.596C23.5565 594.972 32.8945 588.874 38.2222 581.854C36.1999 572.194 34.4818 562.422 33.0785 552.55C25.6779 547.763 14.8209 545.212 2.71918 545.741C1.48315 535.364 0.573248 524.887 0 514.321C12.0274 512.737 22.2847 508.326 28.7307 502.311C28.5745 497.393 28.4958 492.456 28.4958 487.5C28.4958 482.544 28.5745 477.607 28.7307 472.689C22.2847 466.674 12.0274 462.263 0 460.679C0.573248 450.113 1.48315 439.636 2.71918 429.259C14.8209 429.788 25.6779 427.237 33.0785 422.45C34.4818 412.578 36.1999 402.806 38.2222 393.146C32.8945 386.126 23.5565 380.028 11.9963 376.404C14.3938 366.122 17.1169 355.965 20.1541 345.944C31.9704 348.574 43.1035 347.96 51.2357 344.551ZM488.5 889.334C501.99 889.334 512.925 878.421 512.925 864.959C512.925 851.497 501.99 840.584 488.5 840.584C475.01 840.584 464.075 851.497 464.075 864.959C464.075 878.421 475.01 889.334 488.5 889.334ZM105.549 611.674C109.717 624.477 123.497 631.483 136.326 627.323C149.155 623.163 156.176 609.412 152.008 596.609C147.839 583.806 134.06 576.799 121.231 580.959C108.401 585.119 101.38 598.871 105.549 611.674ZM251.823 162.409C240.91 170.322 238.491 185.565 246.42 196.456C254.349 207.347 269.623 209.761 280.536 201.849C291.45 193.936 293.869 178.693 285.94 167.802C278.011 156.911 262.736 154.496 251.823 162.409ZM871.451 611.674C875.62 598.871 868.599 585.119 855.769 580.959C842.94 576.799 829.161 583.806 824.992 596.609C820.824 609.412 827.845 623.163 840.674 627.323C853.503 631.483 867.283 624.477 871.451 611.674ZM725.177 162.409C714.264 154.496 698.989 156.911 691.06 167.802C683.131 178.693 685.55 193.936 696.464 201.849C707.377 209.761 722.651 207.347 730.58 196.456C738.509 185.565 736.09 170.322 725.177 162.409Z" fill="black" style="fill:black;fill-opacity:1;"/>
</svg>
