<svg width="375" height="80" viewBox="0 0 375 80" fill="none" xmlns="http://www.w3.org/2000/svg">
<g clip-path="url(#clip0_824:4277)">
<path d="M240.054 78.6944C240.054 78.6944 232.06 74.7194 231.234 74.4278C230.408 74.1362 228.822 73.9413 228.045 74.1362C228.012 74.1444 227.969 74.1554 227.916 74.1688C226.722 74.4713 220.599 76.0223 216.869 76.0223C201.402 76.0223 189 64.8276 189 49.9478L188 49.9497C188 49.9491 188 49.9484 188 49.9478C187.971 34.4784 201.005 22 216.985 22C232.982 22 246 34.4797 246 49.9478C246 55.5157 244.043 61.2445 241.385 65.0666C241.134 65.4287 240.929 65.908 240.802 66.387C240.669 66.8836 240.649 67.2658 240.673 67.4325C240.716 67.7243 240.887 68.4394 241.145 69.4176C241.397 70.37 241.713 71.5095 242.025 72.6082C242.336 73.7062 242.641 74.7597 242.869 75.5389C242.982 75.9285 243.076 76.2493 243.142 76.4726L243.218 76.7309L243.238 76.7984L243.243 76.8156L243.245 76.8199L243.245 76.821L243.245 76.8212L242.286 77.1051L243.245 76.8213L243.251 76.8432L243.257 76.8655C243.266 76.9023 243.276 76.9432 243.288 76.9876C243.37 77.3103 243.5 77.8169 243.49 78.2657C243.485 78.5472 243.427 78.9161 243.193 79.2566C242.944 79.619 242.579 79.8302 242.184 79.9248C241.549 80.0767 240.888 79.967 240.471 79.8685C240.246 79.8153 240.053 79.7553 239.915 79.7084C239.846 79.6848 239.789 79.6641 239.748 79.6486C239.728 79.6408 239.711 79.6343 239.698 79.6293L239.683 79.6231L239.677 79.6209L239.675 79.62L239.674 79.6197L239.674 79.6195C239.674 79.6194 239.674 79.6193 240.054 78.6944ZM240.054 78.6944L239.608 79.5898L239.64 79.6057L239.674 79.6193L240.054 78.6944Z" fill="#DADCE0" stroke="white" stroke-width="2"/>
<path d="M140.653 64.6507C141.098 65.5461 141.098 65.5461 141.098 65.5461L141.099 65.5459L141.1 65.5453L141.105 65.5429L141.124 65.5332L141.201 65.4952L141.492 65.3507C141.743 65.2259 142.103 65.0473 142.539 64.832C143.409 64.4012 144.579 63.8235 145.779 63.2356C146.979 62.6474 148.206 62.05 149.19 61.5794C150.209 61.0926 150.893 60.7783 151.065 60.7176C151.439 60.5856 152.044 60.4588 152.677 60.3943C153.33 60.3279 153.863 60.3435 154.133 60.4113C154.171 60.4206 154.22 60.433 154.28 60.4482C154.932 60.6135 156.892 61.1099 159.228 61.5828C161.761 62.0952 164.816 62.5969 167.15 62.5969C185.303 62.5969 199.999 49.4277 200 31.7994C200.034 14.2034 185.207 0 167.017 0C148.808 0 134 14.2037 134 31.7975C134 38.1313 136.227 44.6501 139.248 48.9946C139.548 49.4252 139.787 49.9892 139.936 50.5484C140.09 51.1252 140.117 51.5831 140.086 51.8004C140.036 52.1437 139.838 52.9697 139.544 54.0851C139.256 55.1749 138.894 56.4781 138.537 57.7341C138.181 58.9893 137.833 60.1937 137.573 61.0845C137.443 61.5298 137.335 61.8966 137.26 62.1519L137.173 62.4472L137.15 62.5244L137.145 62.5441L137.143 62.549L137.143 62.5502L137.143 62.5505L138.102 62.8344L137.143 62.5506L137.136 62.5725L137.131 62.5948C137.12 62.6385 137.108 62.6863 137.095 62.7378C137 63.1095 136.858 63.6665 136.868 64.1579C136.874 64.4638 136.937 64.8545 137.183 65.2124C137.444 65.5922 137.828 65.8166 138.252 65.918C138.943 66.0836 139.673 65.9647 140.143 65.8536C140.394 65.7941 140.611 65.7269 140.765 65.6744C140.843 65.648 140.906 65.6248 140.951 65.6076C140.974 65.599 140.993 65.5918 141.006 65.5864L141.023 65.5796L141.029 65.5773L141.031 65.5764L141.032 65.576L141.033 65.5758C141.033 65.5758 141.033 65.5757 140.653 64.6507ZM140.653 64.6507L141.098 65.5461L141.066 65.5621L141.033 65.5757L140.653 64.6507Z" fill="#DADCE0" stroke="white" stroke-width="2"/>
<circle cx="155" cy="29" r="3" fill="#909399"/>
<circle cx="179" cy="29" r="3" fill="#909399"/>
<circle cx="206" cy="51" r="3" fill="#909399"/>
<circle cx="217" cy="51" r="3" fill="#909399"/>
<circle cx="228" cy="51" r="3" fill="#909399"/>
<path d="M161 40C161 40 163 38 167 38C171 38 173 40 173 40" stroke="#909399" stroke-width="3" stroke-linecap="round"/>
</g>
<defs>
<clipPath id="clip0_824:4277">
<rect width="375" height="80" fill="white"/>
</clipPath>
</defs>
</svg>
