<svg width="375" height="80" viewBox="0 0 375 80" fill="none" xmlns="http://www.w3.org/2000/svg">
<g clip-path="url(#clip0_824:4465)">
<path d="M199.438 13.0345C200.796 17.5283 205.54 20.0705 210.033 18.7128C212.054 18.1022 213.804 19.0201 215.145 19.7384C216.485 20.4568 218.219 21.4058 218.829 23.4267C220.187 27.9204 224.93 30.4627 229.424 29.1049C233.918 27.7472 236.46 23.0036 235.103 18.5098C233.745 14.0178 229.047 11.4599 224.507 12.8315C222.481 13.4439 221.164 12.7533 219.396 11.8058C217.628 10.8583 216.324 10.1444 215.712 8.11765C214.354 3.62386 209.61 1.08161 205.117 2.43936C200.623 3.79711 198.081 8.54072 199.438 13.0345Z" fill="#DADCE0" stroke="white"/>
<circle cx="207.575" cy="10.5762" r="3" transform="rotate(28.1883 207.575 10.5762)" fill="#909399"/>
<circle cx="226.966" cy="20.9683" r="3" transform="rotate(28.1883 226.966 20.9683)" fill="#909399"/>
<path d="M245.215 28.6105C249.418 30.7013 254.521 28.9888 256.611 24.7857C257.551 22.8955 259.419 22.25 260.861 21.7661C262.303 21.2822 264.182 20.6702 266.072 21.6104C270.275 23.7012 275.377 21.9887 277.468 17.7856C279.559 13.5824 277.846 8.48024 273.643 6.38951C269.442 4.29962 264.359 5.96821 262.247 10.2144C261.304 12.11 259.899 12.5956 257.997 13.2339C256.096 13.8721 254.682 14.3325 252.786 13.3896C248.583 11.2989 243.481 13.0113 241.39 17.2145C239.3 21.4176 241.012 26.5198 245.215 28.6105Z" fill="#DADCE0" stroke="white"/>
<circle cx="249.001" cy="21.0001" r="3" transform="rotate(-18.5533 249.001 21.0001)" fill="#909399"/>
<circle cx="269.857" cy="13.9999" r="3" transform="rotate(-18.5533 269.857 13.9999)" fill="#909399"/>
<path d="M284.939 17.8067C287.318 21.8536 292.527 23.2055 296.574 20.8264C298.394 19.7565 300.311 20.2358 301.783 20.6178C303.255 20.9998 305.163 21.5134 306.233 23.3332C308.613 27.3801 313.822 28.7321 317.869 26.353C321.916 23.9738 323.268 18.7645 320.888 14.7176C318.51 10.6723 313.341 9.2944 309.253 11.6979C307.428 12.7709 305.986 12.4103 304.044 11.9064C302.103 11.4025 300.667 11.0162 299.594 9.19105C297.215 5.14417 292.005 3.7922 287.959 6.17134C283.912 8.55048 282.56 13.7598 284.939 17.8067Z" fill="#DADCE0" stroke="white"/>
<circle cx="292.266" cy="13.4987" r="3" transform="rotate(14.5489 292.266 13.4987)" fill="#909399"/>
<circle cx="313.561" cy="19.0253" r="3" transform="rotate(14.5489 313.561 19.0253)" fill="#909399"/>
<path d="M322.843 31.1748C322.214 35.8269 325.475 40.1082 330.127 40.7373C332.219 41.0203 333.431 42.5815 334.352 43.7913C335.274 45.001 336.457 46.5837 336.174 48.6758C335.545 53.3278 338.806 57.6091 343.458 58.2383C348.11 58.8674 352.392 55.6062 353.021 50.9542C353.65 46.304 350.436 42.0272 345.737 41.3916C343.639 41.1079 342.727 39.9333 341.512 38.3377C340.296 36.742 339.406 35.5514 339.69 33.4532C340.319 28.8012 337.058 24.5199 332.406 23.8907C327.754 23.2616 323.472 26.5228 322.843 31.1748Z" fill="#DADCE0" stroke="white"/>
<circle cx="331.266" cy="32.314" r="3" transform="rotate(52.7022 331.266 32.314)" fill="#909399"/>
<circle cx="344.597" cy="49.815" r="3" transform="rotate(52.7022 344.597 49.815)" fill="#909399"/>
<path d="M355.031 66.2174C356.745 70.5877 361.677 72.7411 366.048 71.0271C368.013 70.2564 369.831 71.0308 371.225 71.6393C372.619 72.2478 374.422 73.0546 375.193 75.02C376.907 79.3903 381.84 81.5437 386.21 79.8297C390.58 78.1157 392.734 73.1834 391.02 68.813C389.306 64.4445 384.418 62.2718 380.003 64.0033C378.032 64.7763 376.664 64.1937 374.826 63.3911C372.988 62.5885 371.63 61.9816 370.857 60.0105C369.143 55.6402 364.211 53.4868 359.841 55.2008C355.47 56.9148 353.317 61.8471 355.031 66.2174Z" fill="#DADCE0" stroke="white"/>
<circle cx="362.944" cy="63.114" r="3" transform="rotate(23.5855 362.944 63.114)" fill="#909399"/>
<path d="M220.99 27.0105C224.31 30.3299 229.691 30.3299 233.011 27.0105C234.504 25.5177 236.48 25.5 238 25.5C239.521 25.5 241.497 25.5177 242.99 27.0105C246.31 30.3299 251.691 30.3299 255.011 27.0105C258.33 23.691 258.33 18.3091 255.011 14.9896C251.693 11.6715 246.344 11.6362 242.99 14.9896C241.493 16.4868 240.006 16.5 238 16.5C235.995 16.5 234.508 16.4868 233.011 14.9896C229.691 11.6702 224.31 11.6702 220.99 14.9896C217.671 18.3091 217.671 23.691 220.99 27.0105Z" fill="#DADCE0" stroke="white"/>
<circle cx="227" cy="21" r="3" fill="#909399"/>
<circle cx="249" cy="21" r="3" fill="#909399"/>
<path d="M264.032 20.0524C267.375 23.3487 272.756 23.3112 276.053 19.9687C277.535 18.4655 279.511 18.4341 281.032 18.4235C282.552 18.4129 284.528 18.4168 286.032 19.8991C289.374 23.1954 294.756 23.1579 298.052 19.8154C301.348 16.4729 301.311 11.0911 297.968 7.79485C294.627 4.49993 289.278 4.5019 285.948 7.87861C284.461 9.38611 282.975 9.40972 280.969 9.4237C278.963 9.43767 277.476 9.43478 275.969 7.94813C272.626 4.65188 267.245 4.68938 263.948 8.03188C260.652 11.3744 260.69 16.7562 264.032 20.0524Z" fill="#DADCE0" stroke="white"/>
<circle cx="270" cy="14" r="3" transform="rotate(-0.399191 270 14)" fill="#909399"/>
<circle cx="292" cy="13.8469" r="3" transform="rotate(-0.399191 292 13.8469)" fill="#909399"/>
<path d="M304.687 20.6681C305.489 25.2934 309.889 28.3928 314.514 27.5907C316.594 27.23 318.22 28.3535 319.463 29.2293C320.706 30.1051 322.312 31.2576 322.672 33.3376C323.475 37.963 327.874 41.0623 332.5 40.2602C337.125 39.4581 340.225 35.0582 339.422 30.4329C338.621 25.8093 334.268 22.6999 329.595 23.5102C327.509 23.872 326.286 23.0267 324.646 21.8715C323.006 20.7164 321.799 19.8494 321.437 17.7633C320.635 13.1379 316.235 10.0386 311.609 10.8407C306.984 11.6428 303.885 16.0427 304.687 20.6681Z" fill="#DADCE0" stroke="white"/>
<circle cx="313.062" cy="19.2156" r="3" transform="rotate(35.1618 313.062 19.2156)" fill="#909399"/>
<circle cx="331.047" cy="31.8851" r="3" transform="rotate(35.1618 331.047 31.8851)" fill="#909399"/>
<path d="M336.152 51.6627C336.954 56.2881 341.354 59.3874 345.979 58.5853C348.059 58.2246 349.685 59.3482 350.928 60.2239C352.171 61.0997 353.777 62.2522 354.137 64.3322C354.939 68.9576 359.339 72.057 363.965 71.2548C368.59 70.4527 371.689 66.0529 370.887 61.4275C370.086 56.804 365.733 53.6945 361.06 54.5048C358.974 54.8666 357.751 54.0213 356.111 52.8662C354.471 51.711 353.263 50.8441 352.902 48.758C352.1 44.1326 347.7 41.0332 343.074 41.8353C338.449 42.6374 335.35 47.0373 336.152 51.6627Z" fill="#DADCE0" stroke="white"/>
<circle cx="344.527" cy="50.2103" r="3" transform="rotate(35.1618 344.527 50.2103)" fill="#909399"/>
<circle cx="362.512" cy="62.8797" r="3" transform="rotate(35.1618 362.512 62.8797)" fill="#909399"/>
<path d="M67.3551 43.2985C69.5296 47.4589 74.6651 49.0689 78.8255 46.8944C80.6964 45.9165 82.5873 46.4908 84.0384 46.9457C85.4896 47.4006 87.3699 48.0086 88.3477 49.8795C90.5222 54.04 95.6577 55.6499 99.8181 53.4754C103.979 51.301 105.588 46.1655 103.414 42.0051C101.24 37.8463 96.1466 36.2124 91.9436 38.4092C90.0672 39.3899 88.6447 38.9578 86.7307 38.3578C84.8167 37.7578 83.4021 37.3004 82.4214 35.424C80.2469 31.2636 75.1115 29.6536 70.951 31.8281C66.7906 34.0026 65.1806 39.138 67.3551 43.2985Z" fill="#DADCE0" stroke="white"/>
<circle cx="74.8881" cy="39.3611" r="3" transform="rotate(17.4059 74.8881 39.3611)" fill="#909399"/>
<circle cx="95.8807" cy="45.9422" r="3" transform="rotate(17.4059 95.8807 45.9422)" fill="#909399"/>
<path d="M111.99 54.0105C115.309 57.3299 120.691 57.3299 124.01 54.0105C125.503 52.5177 127.479 52.5 129 52.5C130.521 52.5 132.497 52.5177 133.99 54.0105C137.309 57.3299 142.691 57.3299 146.01 54.0105C149.33 50.691 149.33 45.3091 146.01 41.9896C142.692 38.6715 137.343 38.6362 133.99 41.9896C132.492 43.4868 131.006 43.5 129 43.5C126.994 43.5 125.508 43.4868 124.01 41.9896C120.691 38.6702 115.309 38.6702 111.99 41.9896C108.67 45.3091 108.67 50.691 111.99 54.0105Z" fill="#DADCE0" stroke="white"/>
<circle cx="118" cy="48" r="3" fill="#909399"/>
<circle cx="140" cy="48" r="3" fill="#909399"/>
<path d="M89.4318 51.2095C92.3753 54.8665 97.726 55.4449 101.383 52.5015C103.028 51.1778 104.994 51.3726 106.506 51.5361C108.018 51.6995 109.981 51.9295 111.304 53.5741C114.248 57.2311 119.599 57.8096 123.256 54.8661C126.913 51.9227 127.491 46.5719 124.548 42.9149C121.605 39.2594 116.291 38.6493 112.596 41.6229C110.947 42.9504 109.468 42.8038 107.473 42.5882C105.479 42.3726 104.003 42.1997 102.675 40.5503C99.7316 36.8933 94.3809 36.3149 90.7238 39.2583C87.0668 42.2017 86.4884 47.5525 89.4318 51.2095Z" fill="#DADCE0" stroke="white"/>
<circle cx="96.0532" cy="45.88" r="3" transform="rotate(6.1702 96.0532 45.88)" fill="#909399"/>
<circle cx="117.926" cy="48.2445" r="3" transform="rotate(6.1702 117.926 48.2445)" fill="#909399"/>
<path d="M-10.4979 36.1776C-6.28295 38.2445 -1.19053 36.5032 0.876362 32.2883C1.80584 30.3929 3.66992 29.7367 5.10886 29.2447C6.5478 28.7527 8.42334 28.1301 10.3188 29.0595C14.5337 31.1264 19.6261 29.3851 21.693 25.1702C23.7599 20.9553 22.0186 15.8629 17.8037 13.796C13.5904 11.7299 8.51748 13.4272 6.42943 17.6853C5.49724 19.5863 4.09484 20.0798 2.19691 20.7288C0.298974 21.3778 -1.11201 21.8463 -3.01298 20.9141C-7.2279 18.8472 -12.3203 20.5885 -14.3872 24.8034C-16.4541 29.0183 -14.7128 34.1107 -10.4979 36.1776Z" fill="#DADCE0" stroke="white"/>
<circle cx="14.0612" cy="21.4278" r="3" transform="rotate(-18.8778 14.0612 21.4278)" fill="#909399"/>
<path d="M28.6529 24.0617C30.9623 28.1487 36.1477 29.5898 40.2348 27.2804C42.0727 26.2419 43.9814 26.7539 45.4466 27.1611C46.9119 27.5683 48.8111 28.1145 49.8496 29.9524C52.159 34.0395 57.3444 35.4806 61.4315 33.1712C65.5185 30.8617 66.9596 25.6764 64.6502 21.5893C62.3417 17.5039 57.1972 16.0375 53.0683 18.3706C51.225 19.4121 49.7891 19.0268 47.8565 18.4898C45.9239 17.9527 44.4951 17.5418 43.4535 15.6985C41.1441 11.6114 35.9587 10.1704 31.8716 12.4798C27.7846 14.7892 26.3435 19.9746 28.6529 24.0617Z" fill="#DADCE0" stroke="white"/>
<circle cx="36.0535" cy="19.88" r="3" transform="rotate(15.5311 36.0535 19.88)" fill="#909399"/>
<circle cx="57.2503" cy="25.7706" r="3" transform="rotate(15.5311 57.2503 25.7706)" fill="#909399"/>
<path d="M138.485 56.204C143.088 57.1267 147.567 54.1434 148.49 49.5406C148.905 47.4707 150.54 46.3605 151.806 45.5176C153.071 44.6746 154.726 43.5939 156.796 44.0089C161.399 44.9316 165.878 41.9483 166.801 37.3455C167.724 32.7426 164.74 28.2633 160.137 27.3405C155.536 26.4181 151.065 29.354 150.132 34.0039C149.716 36.0799 148.486 36.915 146.817 38.0268C145.147 39.1387 143.903 39.9518 141.827 39.5356C137.224 38.6129 132.745 41.5962 131.822 46.199C130.899 50.8018 133.882 55.2812 138.485 56.204Z" fill="#DADCE0" stroke="white"/>
<circle cx="140.156" cy="47.8698" r="3" transform="rotate(-33.664 140.156 47.8698)" fill="#909399"/>
<circle cx="158.467" cy="35.6745" r="3" transform="rotate(-33.664 158.467 35.6745)" fill="#909399"/>
<path d="M49.3011 26.3922C49.7916 31.0609 53.974 34.448 58.6427 33.9574C60.7422 33.7369 62.289 34.9668 63.4709 35.9238C64.6527 36.8809 66.1772 38.1383 66.3978 40.2378C66.8883 44.9066 71.0707 48.2937 75.7394 47.8031C80.4081 47.3126 83.7952 43.1302 83.3047 38.4615C82.8144 33.7946 78.6796 30.4006 73.9631 30.8962C71.8574 31.1174 70.6938 30.1921 69.135 28.9297C67.5762 27.6674 66.4293 26.7214 66.208 24.6158C65.7175 19.9471 61.5351 16.56 56.8664 17.0505C52.1977 17.541 48.8106 21.7234 49.3011 26.3922Z" fill="#DADCE0" stroke="white"/>
<circle cx="57.7548" cy="25.5038" r="3" transform="rotate(39.0021 57.7548 25.5038)" fill="#909399"/>
<circle cx="74.8515" cy="39.3495" r="3" transform="rotate(39.0021 74.8515 39.3495)" fill="#909399"/>
<path d="M8.31542 28.0355C11.9226 31.0398 17.2823 30.551 20.2866 26.9438C21.6376 25.3216 23.6039 25.1245 25.1184 24.9864C26.6328 24.8483 28.6024 24.6865 30.2245 26.0375C33.8317 29.0418 39.1914 28.553 42.1956 24.9458C45.1999 21.3386 44.7111 15.9789 41.1039 12.9747C37.4982 9.97159 32.1678 10.4222 29.1328 14.0664C27.7778 15.6932 26.2985 15.8415 24.301 16.0236C22.3035 16.2058 20.8217 16.3276 19.1949 14.9726C15.5877 11.9684 10.228 12.4571 7.22372 16.0643C4.21945 19.6716 4.70822 25.0312 8.31542 28.0355Z" fill="#DADCE0" stroke="white"/>
<circle cx="13.7552" cy="21.504" r="3" transform="rotate(-5.21066 13.7552 21.504)" fill="#909399"/>
<circle cx="35.6644" cy="19.5059" r="3" transform="rotate(-5.21066 35.6644 19.5059)" fill="#909399"/>
</g>
<defs>
<clipPath id="clip0_824:4465">
<rect width="375" height="80" fill="white"/>
</clipPath>
</defs>
</svg>
