<svg width="768" height="736" viewBox="0 0 768 736" fill="none" xmlns="http://www.w3.org/2000/svg">
<path fill-rule="evenodd" clip-rule="evenodd" d="M367.913 294.797L392.248 259.858L237.421 182.532L178.332 318.278L282.949 520.369L260.046 722.441C278.319 728.243 297.149 732.796 316.435 736L330.947 648.774C348.209 651.618 365.932 653.097 384 653.097C402.068 653.097 419.791 651.618 437.053 648.774L451.565 736C471.728 732.65 491.392 727.826 510.442 721.642L475.7 528.863L539.916 465.47L533.383 413.267L511.149 441.026L372.922 343.57H284.489V294.797H367.913ZM414.561 313.228L440.527 331.535L517.864 226.703L491.109 203.32L414.561 313.228ZM383.917 116.587L357.889 105.033L308.399 163.451L333.109 175.792L383.917 116.587ZM378.128 198.276L420.426 219.401L465.786 154.274L435.847 131.016L378.128 198.276ZM384 683.145C397.484 683.145 408.415 694.063 408.415 707.531C408.415 720.999 397.484 731.917 384 731.917C370.516 731.917 359.585 720.999 359.585 707.531C359.585 694.063 370.516 683.145 384 683.145ZM16.8771 423.401C29.7013 419.239 43.4753 426.249 47.6421 439.058C51.809 451.866 44.7908 465.624 31.9666 469.786C19.1424 473.948 5.3684 466.938 1.20156 454.129C-2.96528 441.32 4.05291 427.563 16.8771 423.401ZM720.358 439.058C724.525 426.249 738.299 419.239 751.123 423.401C763.947 427.563 770.965 441.32 766.798 454.129C762.632 466.938 748.858 473.948 736.033 469.786C723.209 465.624 716.191 451.866 720.358 439.058ZM541.095 277.432L562.513 298.824L501.743 374.695L480.429 359.667L541.095 277.432ZM147.418 4.65907C158.326 -3.25728 173.595 -0.841859 181.521 10.0541C189.447 20.95 187.028 36.2003 176.119 44.1167C165.21 52.033 149.942 49.6176 142.016 38.7217C134.09 27.8258 136.509 12.5754 147.418 4.65907ZM586.479 10.0541C594.405 -0.841859 609.673 -3.25728 620.582 4.65907C631.491 12.5754 633.91 27.8258 625.984 38.7217C618.058 49.6176 602.789 52.033 591.881 44.1167C580.972 36.2003 578.553 20.95 586.479 10.0541Z" fill="white" style="fill:white;fill-opacity:1;"/>
</svg>
