<svg width="817" height="780" viewBox="0 0 817 780" fill="none" xmlns="http://www.w3.org/2000/svg">
<path fill-rule="evenodd" clip-rule="evenodd" d="M543.589 238.244L608.194 294.801L594.784 313.01L652.303 370.557L600.331 435.553L615.733 558.823L552.73 621.124L581.168 779.192C663.685 740.634 731.191 675.294 772.517 594.35L695.584 554.393C711.718 523.362 722.973 489.386 728.333 453.483L812.983 466.238C815.631 447.438 817 428.226 817 408.695C817 296.08 771.474 194.104 697.831 120.182L638.905 178.248C614.069 153.022 585.125 131.856 553.159 115.834L589.864 42.3874C535.22 15.2544 473.641 0 408.5 0C343.359 0 281.78 15.2544 227.136 42.3874L263.841 115.834C231.875 131.856 202.931 153.022 178.095 178.248L119.169 120.182C45.5261 194.104 0 296.08 0 408.695C0 428.226 1.36942 447.438 4.01742 466.238L88.6674 453.483C94.0266 489.386 105.282 523.362 121.416 554.393L44.483 594.35C86.099 675.862 154.264 741.55 237.57 780L257.348 605.215L148.949 395.469L237.78 191.054L288.021 216.188L368.786 120.693L441.565 153.054L453.547 139.068L556.723 219.354L543.589 238.244Z" fill="#FFD633" style="fill:#FFD633;fill:color(display-p3 1.0000 0.8392 0.2000);fill-opacity:1;"/>
</svg>
