<svg width="892" height="892" viewBox="0 0 892 892" fill="none" xmlns="http://www.w3.org/2000/svg">
<g filter="url(#filter0_dd_6_23)">
<path d="M329.769 828.856C367.123 840.18 406.162 846 446 846C483.639 846 520.569 840.805 556.047 830.676C564.544 828.25 573.399 833.171 575.825 841.668C578.251 850.165 573.33 859.02 564.833 861.446C526.504 872.389 486.618 878 446 878C403.008 878 360.841 871.714 320.485 859.479C312.028 856.915 307.251 847.982 309.815 839.525C312.379 831.069 321.313 826.292 329.769 828.856ZM446 14C684.587 14 878 207.413 878 446C878 604.937 791.419 748.68 654.864 824.24C647.133 828.519 637.397 825.719 633.118 817.987C628.84 810.255 631.64 800.519 639.371 796.241C765.84 726.261 846 593.178 846 446C846 225.086 666.914 46 446 46C225.086 46 46 225.086 46 446C46 589.635 122.324 719.986 243.991 791.32C251.614 795.789 254.17 805.592 249.701 813.215C245.231 820.838 235.429 823.394 227.806 818.925C96.4405 741.905 14 601.108 14 446C14 207.413 207.413 14 446 14ZM629.866 531.699L630.016 532.483L633.842 555.605C636.452 571.375 631.037 587.376 619.467 598.316L618.43 599.268L586.991 627.299C578.709 634.684 574.864 645.808 576.763 656.684L576.989 657.848L603.883 784.159C605.723 792.802 600.208 801.3 591.565 803.141C583.193 804.923 574.956 799.804 572.776 791.624L572.584 790.823L545.69 664.512C541.006 642.51 548.22 619.703 564.613 604.402L565.695 603.414L597.134 575.383C601.001 571.936 602.945 566.845 602.395 561.731L602.271 560.829L598.445 537.707C597.003 528.989 602.901 520.753 611.619 519.31C619.8 517.956 627.557 523.067 629.674 530.906L629.866 531.699ZM437.515 176.678L438.69 177.183L480.915 196.004C490.742 192.251 502.159 193.452 511.17 200.009L512.04 200.664L553.017 232.632C564.205 241.361 568.032 256.073 563.425 268.769L605.93 306.077C616.412 315.277 619.522 329.928 614.417 342.311L641.171 369.148C658.092 386.122 659.861 412.911 645.503 431.937L644.704 432.967L589.442 502.256C576.465 518.526 553.241 522.083 536.024 510.625L535.056 509.96L446.64 447.359C438.958 441.919 429.855 438.865 420.47 438.559L418.903 438.533H344.8C335.963 438.533 328.8 431.37 328.8 422.533C328.8 413.965 335.536 406.969 344.001 406.553L344.8 406.533H418.903C434.85 406.533 450.419 411.299 463.619 420.197L465.132 421.242L490.208 438.998C495.55 442.78 502.938 441.584 506.813 436.309L578.307 338.993C581.993 333.977 581.231 326.976 576.552 322.87L554.987 303.942C550.006 299.571 542.425 300.064 538.053 305.045C537.846 305.281 537.648 305.525 537.46 305.776L478.21 385.036C472.919 392.113 462.893 393.561 455.815 388.27C448.966 383.15 447.389 373.594 452.09 366.569L452.581 365.875L453.107 365.171C455.752 361.631 455.027 356.618 451.487 353.974C451.093 353.679 450.673 353.421 450.231 353.204C351.388 304.567 301.928 280.232 301.852 280.199C297.991 278.525 293.534 280.134 291.601 283.793L237.896 407.635C234.176 416.217 234.405 425.976 238.477 434.352L239.03 435.436L329.329 604.509C335.786 616.599 338.184 630.428 336.196 643.959L335.925 645.649L311.189 787.565C309.672 796.27 301.385 802.097 292.68 800.58C284.238 799.109 278.503 791.272 279.547 782.86L279.665 782.07L304.4 640.154C305.549 633.561 304.601 626.785 301.707 620.775L301.102 619.584L210.804 450.511C201.87 433.785 200.827 413.986 207.891 396.45L208.535 394.909L261.969 271.631C270.755 251.362 294.308 242.052 314.578 250.838L315.459 251.233L316.331 251.649L317.932 252.437C322.879 254.871 328.848 253.621 332.403 249.407L382.457 190.074C395.688 174.388 417.347 168.917 436.332 176.205L437.515 176.678ZM587.625 380.357L533.185 454.467C529.262 459.808 530.411 467.318 535.752 471.242C535.808 471.283 535.865 471.324 535.922 471.365L553.547 483.844C556.826 486.166 561.281 485.681 563.99 482.805L564.424 482.303L619.687 413.014C624.577 406.882 624.281 398.152 619.104 392.371L618.509 391.741L605.795 378.988C601.115 374.295 593.517 374.284 588.824 378.963C588.389 379.396 587.989 379.862 587.625 380.357ZM484.901 234.619L434.787 293.261C430.482 298.299 431.076 305.874 436.114 310.179C436.875 310.83 437.714 311.382 438.612 311.824L469.422 326.984C474.606 329.535 480.872 328.03 484.331 323.403L526.294 267.278C530.205 262.047 529.214 254.649 524.064 250.631L501.405 232.953C496.343 229.005 489.071 229.739 484.901 234.619ZM407.482 210.071L406.916 210.707L365.83 259.411C361.557 264.477 362.199 272.048 367.265 276.321C368.01 276.95 368.829 277.485 369.704 277.916L386.755 286.307C391.676 288.729 397.613 287.506 401.177 283.336L445.095 231.942C449.4 226.903 448.806 219.329 443.768 215.023C442.891 214.274 441.911 213.655 440.858 213.186L425.66 206.41C419.673 203.741 412.726 205.01 408.075 209.471L407.482 210.071Z" fill="black"/>
</g>
<path d="M329.769 828.856C367.123 840.18 406.162 846 446 846C483.639 846 520.569 840.805 556.047 830.676C564.544 828.25 573.399 833.171 575.825 841.668C578.251 850.165 573.33 859.02 564.833 861.446C526.504 872.389 486.618 878 446 878C403.008 878 360.841 871.714 320.485 859.479C312.028 856.915 307.251 847.982 309.815 839.525C312.379 831.069 321.313 826.292 329.769 828.856ZM446 14C684.587 14 878 207.413 878 446C878 604.937 791.419 748.68 654.864 824.24C647.133 828.519 637.397 825.719 633.118 817.987C628.84 810.255 631.64 800.519 639.371 796.241C765.84 726.261 846 593.178 846 446C846 225.086 666.914 46 446 46C225.086 46 46 225.086 46 446C46 589.635 122.324 719.986 243.991 791.32C251.614 795.789 254.17 805.592 249.701 813.215C245.231 820.838 235.429 823.394 227.806 818.925C96.4405 741.905 14 601.108 14 446C14 207.413 207.413 14 446 14ZM629.866 531.699L630.016 532.483L633.842 555.605C636.452 571.375 631.037 587.376 619.467 598.316L618.43 599.268L586.991 627.299C578.709 634.684 574.864 645.808 576.763 656.684L576.989 657.848L603.883 784.159C605.723 792.802 600.208 801.3 591.565 803.141C583.193 804.923 574.956 799.804 572.776 791.624L572.584 790.823L545.69 664.512C541.006 642.51 548.22 619.703 564.613 604.402L565.695 603.414L597.134 575.383C601.001 571.936 602.945 566.845 602.395 561.731L602.271 560.829L598.445 537.707C597.003 528.989 602.901 520.753 611.619 519.31C619.8 517.956 627.557 523.067 629.674 530.906L629.866 531.699ZM437.515 176.678L438.69 177.183L480.915 196.004C490.742 192.251 502.159 193.452 511.17 200.009L512.04 200.664L553.017 232.632C564.205 241.361 568.032 256.073 563.425 268.769L605.93 306.077C616.412 315.277 619.522 329.928 614.417 342.311L641.171 369.148C658.092 386.122 659.861 412.911 645.503 431.937L644.704 432.967L589.442 502.256C576.465 518.526 553.241 522.083 536.024 510.625L535.056 509.96L446.64 447.359C438.958 441.919 429.855 438.865 420.47 438.559L418.903 438.533H344.8C335.963 438.533 328.8 431.37 328.8 422.533C328.8 413.965 335.536 406.969 344.001 406.553L344.8 406.533H418.903C434.85 406.533 450.419 411.299 463.619 420.197L465.132 421.242L490.208 438.998C495.55 442.78 502.938 441.584 506.813 436.309L578.307 338.993C581.993 333.977 581.231 326.976 576.552 322.87L554.987 303.942C550.006 299.571 542.425 300.064 538.053 305.045C537.846 305.281 537.648 305.525 537.46 305.776L478.21 385.036C472.919 392.113 462.893 393.561 455.815 388.27C448.966 383.15 447.389 373.594 452.09 366.569L452.581 365.875L453.107 365.171C455.752 361.631 455.027 356.618 451.487 353.974C451.093 353.679 450.673 353.421 450.231 353.204C351.388 304.567 301.928 280.232 301.852 280.199C297.991 278.525 293.534 280.134 291.601 283.793L237.896 407.635C234.176 416.217 234.405 425.976 238.477 434.352L239.03 435.436L329.329 604.509C335.786 616.599 338.184 630.428 336.196 643.959L335.925 645.649L311.189 787.565C309.672 796.27 301.385 802.097 292.68 800.58C284.238 799.109 278.503 791.272 279.547 782.86L279.665 782.07L304.4 640.154C305.549 633.561 304.601 626.785 301.707 620.775L301.102 619.584L210.804 450.511C201.87 433.785 200.827 413.986 207.891 396.45L208.535 394.909L261.969 271.631C270.755 251.362 294.308 242.052 314.578 250.838L315.459 251.233L316.331 251.649L317.932 252.437C322.879 254.871 328.848 253.621 332.403 249.407L382.457 190.074C395.688 174.388 417.347 168.917 436.332 176.205L437.515 176.678ZM587.625 380.357L533.185 454.467C529.262 459.808 530.411 467.318 535.752 471.242C535.808 471.283 535.865 471.324 535.922 471.365L553.547 483.844C556.826 486.166 561.281 485.681 563.99 482.805L564.424 482.303L619.687 413.014C624.577 406.882 624.281 398.152 619.104 392.371L618.509 391.741L605.795 378.988C601.115 374.295 593.517 374.284 588.824 378.963C588.389 379.396 587.989 379.862 587.625 380.357ZM484.901 234.619L434.787 293.261C430.482 298.299 431.076 305.874 436.114 310.179C436.875 310.83 437.714 311.382 438.612 311.824L469.422 326.984C474.606 329.535 480.872 328.03 484.331 323.403L526.294 267.278C530.205 262.047 529.214 254.649 524.064 250.631L501.405 232.953C496.343 229.005 489.071 229.739 484.901 234.619ZM407.482 210.071L406.916 210.707L365.83 259.411C361.557 264.477 362.199 272.048 367.265 276.321C368.01 276.95 368.829 277.485 369.704 277.916L386.755 286.307C391.676 288.729 397.613 287.506 401.177 283.336L445.095 231.942C449.4 226.903 448.806 219.329 443.768 215.023C442.891 214.274 441.911 213.655 440.858 213.186L425.66 206.41C419.673 203.741 412.726 205.01 408.075 209.471L407.482 210.071Z" fill="white"/>
<g filter="url(#filter1_i_6_23)">
<path d="M329.769 828.856C367.123 840.18 406.162 846 446 846C483.639 846 520.569 840.805 556.047 830.676C564.544 828.25 573.399 833.171 575.825 841.668C578.251 850.165 573.33 859.02 564.833 861.446C526.504 872.389 486.618 878 446 878C403.008 878 360.841 871.714 320.485 859.479C312.028 856.915 307.251 847.982 309.815 839.525C312.379 831.069 321.313 826.292 329.769 828.856ZM446 14C684.587 14 878 207.413 878 446C878 604.937 791.419 748.68 654.864 824.24C647.133 828.519 637.397 825.719 633.118 817.987C628.84 810.255 631.64 800.519 639.371 796.241C765.84 726.261 846 593.178 846 446C846 225.086 666.914 46 446 46C225.086 46 46 225.086 46 446C46 589.635 122.324 719.986 243.991 791.32C251.614 795.789 254.17 805.592 249.701 813.215C245.231 820.838 235.429 823.394 227.806 818.925C96.4405 741.905 14 601.108 14 446C14 207.413 207.413 14 446 14ZM629.866 531.699L630.016 532.483L633.842 555.605C636.452 571.375 631.037 587.376 619.467 598.316L618.43 599.268L586.991 627.299C578.709 634.684 574.864 645.808 576.763 656.684L576.989 657.848L603.883 784.159C605.723 792.802 600.208 801.3 591.565 803.141C583.193 804.923 574.956 799.804 572.776 791.624L572.584 790.823L545.69 664.512C541.006 642.51 548.22 619.703 564.613 604.402L565.695 603.414L597.134 575.383C601.001 571.936 602.945 566.845 602.395 561.731L602.271 560.829L598.445 537.707C597.003 528.989 602.901 520.753 611.619 519.31C619.8 517.956 627.557 523.067 629.674 530.906L629.866 531.699ZM437.515 176.678L438.69 177.183L480.915 196.004C490.742 192.251 502.159 193.452 511.17 200.009L512.04 200.664L553.017 232.632C564.205 241.361 568.032 256.073 563.425 268.769L605.93 306.077C616.412 315.277 619.522 329.928 614.417 342.311L641.171 369.148C658.092 386.122 659.861 412.911 645.503 431.937L644.704 432.967L589.442 502.256C576.465 518.526 553.241 522.083 536.024 510.625L535.056 509.96L446.64 447.359C438.958 441.919 429.855 438.865 420.47 438.559L418.903 438.533H344.8C335.963 438.533 328.8 431.37 328.8 422.533C328.8 413.965 335.536 406.969 344.001 406.553L344.8 406.533H418.903C434.85 406.533 450.419 411.299 463.619 420.197L465.132 421.242L490.208 438.998C495.55 442.78 502.938 441.584 506.813 436.309L578.307 338.993C581.993 333.977 581.231 326.976 576.552 322.87L554.987 303.942C550.006 299.571 542.425 300.064 538.053 305.045C537.846 305.281 537.648 305.525 537.46 305.776L478.21 385.036C472.919 392.113 462.893 393.561 455.815 388.27C448.966 383.15 447.389 373.594 452.09 366.569L452.581 365.875L453.107 365.171C455.752 361.631 455.027 356.618 451.487 353.974C451.093 353.679 450.673 353.421 450.231 353.204C351.388 304.567 301.928 280.232 301.852 280.199C297.991 278.525 293.534 280.134 291.601 283.793L237.896 407.635C234.176 416.217 234.405 425.976 238.477 434.352L239.03 435.436L329.329 604.509C335.786 616.599 338.184 630.428 336.196 643.959L335.925 645.649L311.189 787.565C309.672 796.27 301.385 802.097 292.68 800.58C284.238 799.109 278.503 791.272 279.547 782.86L279.665 782.07L304.4 640.154C305.549 633.561 304.601 626.785 301.707 620.775L301.102 619.584L210.804 450.511C201.87 433.785 200.827 413.986 207.891 396.45L208.535 394.909L261.969 271.631C270.755 251.362 294.308 242.052 314.578 250.838L315.459 251.233L316.331 251.649L317.932 252.437C322.879 254.871 328.848 253.621 332.403 249.407L382.457 190.074C395.688 174.388 417.347 168.917 436.332 176.205L437.515 176.678ZM587.625 380.357L533.185 454.467C529.262 459.808 530.411 467.318 535.752 471.242C535.808 471.283 535.865 471.324 535.922 471.365L553.547 483.844C556.826 486.166 561.281 485.681 563.99 482.805L564.424 482.303L619.687 413.014C624.577 406.882 624.281 398.152 619.104 392.371L618.509 391.741L605.795 378.988C601.115 374.295 593.517 374.284 588.824 378.963C588.389 379.396 587.989 379.862 587.625 380.357ZM484.901 234.619L434.787 293.261C430.482 298.299 431.076 305.874 436.114 310.179C436.875 310.83 437.714 311.382 438.612 311.824L469.422 326.984C474.606 329.535 480.872 328.03 484.331 323.403L526.294 267.278C530.205 262.047 529.214 254.649 524.064 250.631L501.405 232.953C496.343 229.005 489.071 229.739 484.901 234.619ZM407.482 210.071L406.916 210.707L365.83 259.411C361.557 264.477 362.199 272.048 367.265 276.321C368.01 276.95 368.829 277.485 369.704 277.916L386.755 286.307C391.676 288.729 397.613 287.506 401.177 283.336L445.095 231.942C449.4 226.903 448.806 219.329 443.768 215.023C442.891 214.274 441.911 213.655 440.858 213.186L425.66 206.41C419.673 203.741 412.726 205.01 408.075 209.471L407.482 210.071Z" fill="white"/>
</g>
<defs>
<filter id="filter0_dd_6_23" x="0" y="0" width="892" height="892" filterUnits="userSpaceOnUse" color-interpolation-filters="sRGB">
<feFlood flood-opacity="0" result="BackgroundImageFix"/>
<feColorMatrix in="SourceAlpha" type="matrix" values="0 0 0 0 0 0 0 0 0 0 0 0 0 0 0 0 0 0 127 0" result="hardAlpha"/>
<feOffset/>
<feGaussianBlur stdDeviation="7"/>
<feColorMatrix type="matrix" values="0 0 0 0 0.196078 0 0 0 0 0.772549 0 0 0 0 1 0 0 0 0.3 0"/>
<feBlend mode="normal" in2="BackgroundImageFix" result="effect1_dropShadow_6_23"/>
<feColorMatrix in="SourceAlpha" type="matrix" values="0 0 0 0 0 0 0 0 0 0 0 0 0 0 0 0 0 0 127 0" result="hardAlpha"/>
<feOffset/>
<feGaussianBlur stdDeviation="2"/>
<feColorMatrix type="matrix" values="0 0 0 0 0.196078 0 0 0 0 0.772549 0 0 0 0 1 0 0 0 0.4 0"/>
<feBlend mode="normal" in2="effect1_dropShadow_6_23" result="effect2_dropShadow_6_23"/>
<feBlend mode="normal" in="SourceGraphic" in2="effect2_dropShadow_6_23" result="shape"/>
</filter>
<filter id="filter1_i_6_23" x="14" y="14" width="864" height="864" filterUnits="userSpaceOnUse" color-interpolation-filters="sRGB">
<feFlood flood-opacity="0" result="BackgroundImageFix"/>
<feBlend mode="normal" in="SourceGraphic" in2="BackgroundImageFix" result="shape"/>
<feColorMatrix in="SourceAlpha" type="matrix" values="0 0 0 0 0 0 0 0 0 0 0 0 0 0 0 0 0 0 127 0" result="hardAlpha"/>
<feOffset/>
<feGaussianBlur stdDeviation="2"/>
<feComposite in2="hardAlpha" operator="arithmetic" k2="-1" k3="1"/>
<feColorMatrix type="matrix" values="0 0 0 0 0.196078 0 0 0 0 0.772549 0 0 0 0 1 0 0 0 0.5 0"/>
<feBlend mode="normal" in2="shape" result="effect1_innerShadow_6_23"/>
</filter>
</defs>
</svg>
